<svg width="21" height="21" viewBox="0 0 21 21" fill="none" xmlns="http://www.w3.org/2000/svg">
<g id="Iconly/Light-Outline/Call">
<path id="Stroke 5" fill-rule="evenodd" clip-rule="evenodd" d="M3.2406 3.90687L3.30106 3.84369C4.90724 2.23736 5.95321 1.81159 7.06923 2.45334C7.39026 2.63795 7.69122 2.89635 8.10046 3.312L9.35577 4.61369C10.0491 5.37027 10.2067 6.09598 9.98097 6.94587L9.94987 7.05838L9.91535 7.17026L9.74753 7.66261C9.38836 8.76676 9.53831 9.38972 10.8162 10.6673C12.1451 11.9959 12.7655 12.1046 13.9548 11.689L14.1668 11.6153L14.4231 11.5321L14.5352 11.5009C15.4386 11.2599 16.2017 11.4522 17.011 12.261L18.0224 13.238L18.3202 13.5308C18.6503 13.8674 18.8684 14.1341 19.0296 14.4161C19.6673 15.5318 19.2411 16.5771 17.5886 18.2234L17.4314 18.3827C17.1847 18.6205 16.9542 18.7909 16.6155 18.9517C16.0471 19.2215 15.3755 19.3233 14.5952 19.2148C12.6723 18.9474 10.2335 17.4302 7.14324 14.3407C6.89169 14.0892 6.65076 13.8426 6.42021 13.6007L5.9729 13.1233C1.78136 8.56936 1.41158 5.77189 3.12932 4.01741L3.2406 3.90687ZM7.08868 4.06776C6.81719 3.8001 6.61997 3.63694 6.4461 3.53696C6.0615 3.31579 5.64625 3.40928 4.87775 4.07072L4.63628 4.28645C4.59416 4.32532 4.55108 4.36569 4.50699 4.40756L4.2301 4.67725L4.20515 4.70843L4.01743 4.89702C3.5638 5.36036 3.34893 5.92586 3.53409 6.89838C3.83793 8.49424 5.22869 10.6591 8.02701 13.4567C10.9427 16.3717 13.1643 17.7538 14.7673 17.9767C15.7019 18.1067 16.1785 17.8803 16.6646 17.3823L17.0353 17.0082C17.2092 16.8263 17.3577 16.6614 17.4831 16.5108L17.6542 16.2952C18.0914 15.7129 18.1314 15.3635 17.9444 15.0364C17.8732 14.9119 17.7697 14.7755 17.6191 14.6087L17.4147 14.3928L17.2938 14.2718L16.0177 13.0397C15.5913 12.6464 15.2999 12.5906 14.8575 12.7087L14.7297 12.7454L14.2012 12.9248C12.6677 13.4201 11.5615 13.1799 9.93245 11.5513C8.24525 9.86453 8.04738 8.73813 8.61269 7.1163L8.64895 7.01208L8.74924 6.70994L8.79853 6.51735C8.88595 6.09821 8.78615 5.80597 8.33558 5.35533C8.31703 5.33678 8.29629 5.31588 8.27373 5.29299L7.08868 4.06776Z" fill="white"/>
</g>
</svg>
