<svg width="17" height="17" viewBox="0 0 17 17" fill="none" xmlns="http://www.w3.org/2000/svg">
<path id="Vector" d="M15.7266 8.24103L8.43452 0.948939C8.1307 0.647597 7.72001 0.478663 7.29209 0.479004H1.62047C1.19069 0.479004 0.77852 0.649731 0.474624 0.953628C0.170728 1.25752 5.08769e-07 1.6697 5.08769e-07 2.09947V7.7711C-0.000168927 7.98493 0.0419836 8.19668 0.124028 8.39414C0.206073 8.5916 0.326388 8.77088 0.478038 8.92163L7.77013 16.2137C8.07395 16.5151 8.48464 16.684 8.91256 16.6837C9.34164 16.6818 9.75249 16.5099 10.055 16.2056L15.7266 10.534C16.0309 10.2315 16.2028 9.82064 16.2047 9.39156C16.2048 9.17773 16.1627 8.96598 16.0806 8.76852C15.9986 8.57106 15.8783 8.39178 15.7266 8.24103ZM8.91256 15.0632L1.62047 7.7711V2.09947H7.29209L14.5842 9.39156M3.64605 2.9097C3.88642 2.9097 4.1214 2.98098 4.32126 3.11453C4.52112 3.24807 4.6769 3.43788 4.76888 3.65996C4.86087 3.88203 4.88494 4.1264 4.83804 4.36215C4.79115 4.59791 4.6754 4.81446 4.50543 4.98443C4.33546 5.1544 4.1189 5.27015 3.88315 5.31705C3.6474 5.36394 3.40303 5.33987 3.18095 5.24789C2.95888 5.1559 2.76907 5.00013 2.63552 4.80026C2.50198 4.6004 2.4307 4.36542 2.4307 4.12505C2.4307 3.80272 2.55874 3.49359 2.78667 3.26567C3.01459 3.03775 3.32372 2.9097 3.64605 2.9097Z" fill="black"/>
</svg>
