<svg width="83" height="52" viewBox="0 0 83 52" fill="none" xmlns="http://www.w3.org/2000/svg">
<g id="Traced/image 190">
<path id="Vector" fill-rule="evenodd" clip-rule="evenodd" d="M20.821 9.53951C19.5847 9.97631 18.9328 10.859 18.7354 12.3635C18.6659 12.8923 18.6073 13.3983 18.6051 13.4876C18.6019 13.6119 18.002 13.6501 16.0549 13.6501C13.6782 13.6501 13.4857 13.668 13.1624 13.9196C12.6731 14.3001 12.6731 15.0801 13.1624 15.4606C13.5051 15.7272 13.6045 15.7301 22.3717 15.7301H31.2347L31.5574 15.411C31.9844 14.9888 31.9844 14.3914 31.5574 13.9693L31.2347 13.6501H25.9532H20.6717L20.7539 13.2439C20.7991 13.0204 20.8361 12.6668 20.8361 12.458C20.8361 12.2282 20.9635 11.9523 21.1589 11.7593L21.4815 11.4401H38.7016C57.9376 11.4401 56.4306 11.3634 56.2783 12.3353C56.2378 12.5937 55.67 17.8946 55.0165 24.1151C54.363 30.3356 53.7995 35.5567 53.7642 35.7176L53.7003 36.0101H43.8589H34.0174L33.9316 35.4793C33.8844 35.1875 33.6943 34.6532 33.5093 34.2922C32.4823 32.2882 30.2569 31.1922 27.9748 31.5661C26.0071 31.8885 24.1671 33.2741 23.3202 35.0712L22.8778 36.0101H20.7441C18.8441 36.0101 18.5974 35.9851 18.4933 35.7826C18.4197 35.6396 18.5126 34.3237 18.7435 32.2401C18.9455 30.4169 19.1143 28.8228 19.1187 28.6976C19.1262 28.4883 19.3512 28.4701 21.9308 28.4701C24.6915 28.4701 24.739 28.4654 25.0205 28.1693C25.5685 27.5925 25.2742 26.6449 24.4879 26.4542C24.3234 26.4143 20.1456 26.3982 15.204 26.4183L6.21928 26.4551L5.88993 26.8338C5.50128 27.2806 5.54519 27.8739 5.99419 28.2426C6.24794 28.451 6.71705 28.4701 11.5738 28.4701C14.4901 28.4701 16.9026 28.514 16.9346 28.5676C16.9667 28.6212 16.8268 30.2225 16.6238 32.1261C16.3765 34.4433 16.2905 35.745 16.3636 36.0652C16.5321 36.8035 17.0242 37.4124 17.7393 37.7673C18.3541 38.0724 18.5097 38.0901 20.5822 38.0901H22.7746L22.8615 38.6271C23.0115 39.5551 23.5577 40.496 24.3865 41.2547C25.273 42.0663 26.2309 42.4838 27.4677 42.5981C29.8403 42.8172 32.4053 41.2924 33.4718 39.029L33.9142 38.0901H46.1617H58.4092L58.4986 38.5776C58.9866 41.2387 61.8307 43.0626 64.6401 42.5162C66.682 42.1189 68.6771 40.4573 69.3541 38.5901L69.5262 38.1151L71.1807 38.0663C72.9747 38.0133 73.331 37.905 74.051 37.1931C74.7779 36.4742 74.8564 36.1337 75.3497 31.5598C75.8643 26.787 75.8522 26.2592 75.1968 24.9033C74.7198 23.9163 68.5754 17.23 67.7076 16.7537C66.464 16.071 65.8342 15.9901 61.7635 15.9901H58.0441L58.0454 15.6976C58.046 15.5368 58.136 14.6154 58.2453 13.6501C58.3546 12.6849 58.4075 11.7196 58.3626 11.5051C58.1975 10.7141 57.6864 10.0514 56.9683 9.69772L56.2832 9.36011L38.7898 9.36583C24.8373 9.37038 21.2 9.40548 20.821 9.53951ZM8.76309 18.2409C8.2151 18.8177 8.50934 19.7654 9.29571 19.956C9.46018 19.9959 13.7563 20.012 18.8428 19.9918L28.0906 19.9551L28.342 19.6482C28.6908 19.2222 28.6666 18.5736 28.289 18.2227L27.9846 17.9401H18.5168H9.04905L8.76309 18.2409ZM57.7338 18.6157C57.5927 19.6101 55.9404 35.3268 55.9404 35.6741V36.0101H57.2569H58.5732L58.9048 35.2688C60.1169 32.5587 63.138 30.9703 65.7982 31.6442C67.7812 32.1465 69.1101 33.4742 69.6149 35.4576L69.7556 36.0101H70.9997C72.0629 36.0101 72.2813 35.9728 72.5032 35.7534C72.8413 35.4191 72.8217 35.5373 73.2976 30.9713C73.6848 27.2569 73.6963 26.9986 73.5034 26.3427C73.3225 25.7272 72.9522 25.2637 70.2604 22.2815C67.7623 19.514 67.0911 18.8457 66.4883 18.5251L65.755 18.1351L61.784 18.0957L57.8131 18.0562L57.7338 18.6157ZM59.8762 20.4852C59.6401 20.7667 59.0832 25.8315 59.2521 26.1626C59.3599 26.374 59.7725 26.3901 65.0924 26.3901C69.9899 26.3901 70.8105 26.3632 70.774 26.2041C70.6899 25.8357 66.025 20.8114 65.5498 20.5774C65.1568 20.384 64.6589 20.3385 62.5695 20.3051C60.342 20.2696 60.0403 20.2897 59.8762 20.4852ZM11.4163 22.1907C10.6791 22.3315 10.3968 23.4058 10.9527 23.9555L11.2455 24.2451L21.6615 24.2815C27.3902 24.3017 32.273 24.2837 32.512 24.2419C33.0853 24.1412 33.4579 23.7553 33.4579 23.2615C33.4579 22.7056 33.2664 22.4102 32.8027 22.2504C32.4209 22.1187 12.0902 22.0621 11.4163 22.1907ZM27.8701 33.722C27.0216 33.9873 26.5758 34.2634 26.0009 34.8803C25.3297 35.6002 25.0723 36.0839 24.91 36.9296C24.6606 38.2302 25.2254 39.4928 26.3489 40.1458C26.8619 40.444 27.094 40.4939 27.9358 40.4872C28.7322 40.4808 29.0484 40.4141 29.5793 40.1406C31.0131 39.4021 31.913 38.0356 31.913 36.5971C31.913 34.4939 29.9242 33.0796 27.8701 33.722ZM63.5596 33.71C61.8963 34.1735 60.7091 35.5897 60.5724 37.2734C60.4845 38.356 60.7706 39.0936 61.5369 39.7605C62.9009 40.9476 64.9423 40.7663 66.3963 39.3285C67.2419 38.4925 67.5681 37.7316 67.5726 36.585C67.5756 35.7842 67.5245 35.5821 67.1783 35.0283C66.4414 33.85 64.9749 33.3157 63.5596 33.71Z" fill="white"/>
</g>
</svg>
