<svg width="104" height="117" viewBox="0 0 104 117" fill="none" xmlns="http://www.w3.org/2000/svg">
<g id="ci:double-quotes-l" opacity="0.12">
<path id="Vector" d="M79.0648 53.6637C88.7838 53.6637 95.3333 60.5466 95.3333 70.7449C95.3333 79.9221 87.8057 87.5677 77.61 87.5677C66.4424 87.5677 58.1905 78.3905 58.1905 64.3726C58.1905 32.5107 81.0086 19.766 95.3333 18.2344V32.2523C85.6205 34.0361 74.7005 43.976 74.2114 54.9432C74.7005 54.6911 76.6381 53.6637 79.0648 53.6637ZM29.5471 53.6637C39.2538 53.6637 45.8095 60.5466 45.8095 70.7449C45.8095 79.9221 38.2819 87.5677 28.0862 87.5677C16.9186 87.5677 8.66667 78.3905 8.66667 64.3726C8.66667 32.5107 31.4848 19.766 45.8095 18.2344V32.2523C36.0967 34.0361 25.1767 43.976 24.6876 54.9432C25.1767 54.6911 27.1143 53.6637 29.5471 53.6637Z" fill="#FFA800"/>
</g>
</svg>
