<svg width="50" height="50" viewBox="0 0 50 50" fill="none" xmlns="http://www.w3.org/2000/svg">
<g id="Icon">
<rect id="Rectangle 13" width="50" height="50" rx="10" fill="#29669A"/>
<g id="Icon_2">
<path fill-rule="evenodd" clip-rule="evenodd" d="M21.2899 27.7C20.2958 27.7 19.4899 26.8941 19.4899 25.9C19.4899 24.9059 20.2958 24.1 21.2899 24.1C21.4486 24.1 21.6025 24.1205 21.7491 24.1591L24.0443 21.8639C24.0031 21.7127 23.9811 21.5537 23.9811 21.3895C23.9811 20.3953 24.787 19.5895 25.7811 19.5895C26.7752 19.5895 27.5811 20.3953 27.5811 21.3895C27.5811 21.877 27.3873 22.3193 27.0725 22.6434L28.016 25.9458C28.8038 26.1376 29.3886 26.8479 29.3886 27.6947C29.3886 28.6888 28.5827 29.4947 27.5886 29.4947C26.7479 29.4947 26.0418 28.9184 25.8439 28.1393L22.5398 27.1953C22.2161 27.5078 21.7754 27.7 21.2899 27.7ZM23.0371 25.4653L26.2707 26.3892L25.341 23.1352C25.335 23.1337 25.3291 23.1322 25.3231 23.1307L23.0271 25.4267C23.0305 25.4395 23.0339 25.4524 23.0371 25.4653Z" fill="white"/>
<path fill-rule="evenodd" clip-rule="evenodd" d="M14.856 25L19.856 16H29.9151L34.9151 25L29.9151 34H19.856L14.856 25ZM16.9151 25L20.9151 32.2H28.856L32.856 25L28.856 17.8H20.9151L16.9151 25Z" fill="white"/>
</g>
</g>
</svg>
