<svg width="25" height="24" viewBox="0 0 25 24" fill="none" xmlns="http://www.w3.org/2000/svg">
<g id="svgexport-6 (7) 1">
<g id="Group">
<g id="_x31_0.Linkedin">
<path id="Vector" d="M21.9333 21.5997V14.5677C21.9333 11.1117 21.1893 8.47168 17.1573 8.47168C15.2133 8.47168 13.9173 9.52768 13.3893 10.5357H13.3413V8.78368H9.52533V21.5997H13.5093V15.2397C13.5093 13.5597 13.8213 11.9517 15.8853 11.9517C17.9253 11.9517 17.9493 13.8477 17.9493 15.3357V21.5757H21.9333V21.5997Z" fill="white"/>
<path id="Vector_2" d="M3.04535 8.78369H7.02935V21.5997H3.04535V8.78369Z" fill="white"/>
<path id="Vector_3" d="M5.03734 2.3999C3.76534 2.3999 2.73334 3.4319 2.73334 4.7039C2.73334 5.9759 3.76534 7.0319 5.03734 7.0319C6.30934 7.0319 7.34134 5.9759 7.34134 4.7039C7.34134 3.4319 6.30934 2.3999 5.03734 2.3999Z" fill="white"/>
</g>
</g>
</g>
</svg>
