<svg width="50" height="50" viewBox="0 0 50 50" fill="none" xmlns="http://www.w3.org/2000/svg">
<g id="Icon">
<rect id="Rectangle 14" width="50" height="50" rx="10" fill="#29669A"/>
<g id="Icon_2">
<path d="M25 17.6364C20.9332 17.6364 17.6364 20.9332 17.6364 25V25.8182H16V25C16 20.0294 20.0294 16 25 16C28.0449 16 30.7354 17.512 32.3636 19.8243V16.8182H34V22.5455H28.2727V20.9091H31.1238C29.8023 18.9348 27.5521 17.6364 25 17.6364Z" fill="white"/>
<path d="M34 24.1818V25C34 29.9706 29.9705 34 25 34C21.9551 34 19.2646 32.488 17.6364 30.1757V33.1818H16V27.4545H21.7273V29.0909H18.8761C20.1977 31.0652 22.4478 32.3636 25 32.3636C29.0668 32.3636 32.3636 29.0668 32.3636 25V24.1818H34Z" fill="white"/>
</g>
</g>
</svg>
