<svg width="13" height="16" viewBox="0 0 13 16" fill="none" xmlns="http://www.w3.org/2000/svg">
<path id="Vector" d="M4.11111 9.55556L8.77778 4.88889M4.5 5.27778H4.50778M8.38889 9.16667H8.39667M11.8889 15V2.55556C11.8889 2.143 11.725 1.74733 11.4333 1.45561C11.1416 1.16389 10.7459 1 10.3333 1H2.55556C2.143 1 1.74733 1.16389 1.45561 1.45561C1.16389 1.74733 1 2.143 1 2.55556V15L3.72222 13.4444L6.44444 15L9.16667 13.4444L11.8889 15ZM4.88889 5.27778C4.88889 5.38092 4.84792 5.47983 4.77499 5.55276C4.70206 5.62569 4.60314 5.66667 4.5 5.66667C4.39686 5.66667 4.29794 5.62569 4.22501 5.55276C4.15208 5.47983 4.11111 5.38092 4.11111 5.27778C4.11111 5.17464 4.15208 5.07572 4.22501 5.00279C4.29794 4.92986 4.39686 4.88889 4.5 4.88889C4.60314 4.88889 4.70206 4.92986 4.77499 5.00279C4.84792 5.07572 4.88889 5.17464 4.88889 5.27778ZM8.77778 9.16667C8.77778 9.26981 8.73681 9.36872 8.66388 9.44165C8.59094 9.51458 8.49203 9.55556 8.38889 9.55556C8.28575 9.55556 8.18683 9.51458 8.1139 9.44165C8.04097 9.36872 8 9.26981 8 9.16667C8 9.06353 8.04097 8.96461 8.1139 8.89168C8.18683 8.81875 8.28575 8.77778 8.38889 8.77778C8.49203 8.77778 8.59094 8.81875 8.66388 8.89168C8.73681 8.96461 8.77778 9.06353 8.77778 9.16667Z" stroke="black" stroke-width="1.55556" stroke-linecap="round" stroke-linejoin="round"/>
</svg>
