<svg width="50" height="50" viewBox="0 0 50 50" fill="none" xmlns="http://www.w3.org/2000/svg">
<g id="Icon">
<rect id="Rectangle 12" width="50" height="50" rx="10" fill="#29669A"/>
<g id="Icon_2">
<path d="M17.2222 16L22.4074 21.1852V18.0864H24.1358V24.1358H18.0864V22.4074H21.1852L16 17.2222L17.2222 16Z" fill="white"/>
<path d="M34 17.2222L28.8148 22.4074L31.9136 22.4074V24.1358L25.8642 24.1358V18.0864H27.5926V21.1852L32.7778 16L34 17.2222Z" fill="white"/>
<path d="M18.0864 25.8642H24.1358V31.9136H22.4074V28.8148L17.2222 34L16 32.7778L21.1852 27.5926H18.0864V25.8642Z" fill="white"/>
<path d="M25.8642 25.8642H31.9136V27.5926H28.8148L34 32.7778L32.7778 34L27.5926 28.8148V31.9136H25.8642V25.8642Z" fill="white"/>
</g>
</g>
</svg>
