<svg width="17" height="17" viewBox="0 0 17 17" fill="none" xmlns="http://www.w3.org/2000/svg">
<path id="Vector" d="M5.9199 16.219L5.59552 13.6239C5.41982 13.5564 5.25438 13.4753 5.09922 13.3807C4.94406 13.286 4.79188 13.1847 4.64266 13.0766L2.2301 14.0902L0 10.2382L2.08818 8.6569C2.07467 8.56229 2.06791 8.4712 2.06791 8.38361V7.83623C2.06791 7.7481 2.07467 7.65674 2.08818 7.56213L0 5.98078L2.2301 2.12879L4.64266 3.14247C4.79134 3.03435 4.94677 2.93298 5.10896 2.83837C5.27114 2.74376 5.43333 2.66266 5.59552 2.59509L5.9199 6.10352e-05H10.3801L10.7045 2.59509C10.8802 2.66266 11.0459 2.74376 11.2016 2.83837C11.3573 2.93298 11.5092 3.03435 11.6573 3.14247L14.0699 2.12879L16.3 5.98078L14.2118 7.56213C14.2253 7.65674 14.2321 7.7481 14.2321 7.83623V8.3828C14.2321 8.47093 14.2186 8.56229 14.1915 8.6569L16.2797 10.2382L14.0496 14.0902L11.6573 13.0766C11.5087 13.1847 11.3532 13.286 11.191 13.3807C11.0289 13.4753 10.8667 13.5564 10.7045 13.6239L10.3801 16.219H5.9199ZM7.33906 14.5971H8.94067L9.2245 12.4481C9.64349 12.3399 10.0322 12.1813 10.3906 11.972C10.7491 11.7628 11.0767 11.5093 11.3735 11.2114L13.3806 12.0426L14.1713 10.664L12.4277 9.34621C12.4953 9.15699 12.5426 8.95776 12.5697 8.74854C12.5967 8.53932 12.6102 8.32631 12.6102 8.10951C12.6102 7.89326 12.5967 7.68052 12.5697 7.4713C12.5426 7.26208 12.4953 7.06258 12.4277 6.87282L14.1713 5.55504L13.3806 4.17643L11.3735 5.02792C11.0762 4.71706 10.7485 4.45702 10.3906 4.24779C10.0327 4.03857 9.64403 3.87962 9.2245 3.77096L8.96095 1.62195H7.35933L7.0755 3.77096C6.65651 3.87908 6.26807 4.03803 5.91017 4.24779C5.55227 4.45756 5.22438 4.71084 4.92649 5.00765L2.9194 4.17643L2.12873 5.55504L3.87226 6.85255C3.80468 7.05529 3.75738 7.25802 3.73035 7.46076C3.70332 7.66349 3.6898 7.87975 3.6898 8.10951C3.6898 8.32577 3.70332 8.53526 3.73035 8.738C3.75738 8.94073 3.80468 9.14347 3.87226 9.34621L2.12873 10.664L2.9194 12.0426L4.92649 11.1911C5.22384 11.502 5.55173 11.7623 5.91017 11.972C6.26861 12.1818 6.65705 12.3405 7.0755 12.4481L7.33906 14.5971ZM8.19055 10.9478C8.97446 10.9478 9.64349 10.6708 10.1976 10.1166C10.7518 9.56246 11.0289 8.89343 11.0289 8.10951C11.0289 7.3256 10.7518 6.65657 10.1976 6.10242C9.64349 5.54828 8.97446 5.27121 8.19055 5.27121C7.39312 5.27121 6.72057 5.54828 6.17292 6.10242C5.62526 6.65657 5.3517 7.3256 5.35224 8.10951C5.35224 8.89343 5.62607 9.56246 6.17373 10.1166C6.72138 10.6708 7.39366 10.9478 8.19055 10.9478Z" fill="black"/>
</svg>
