<svg width="35" height="35" viewBox="0 0 35 35" fill="none" xmlns="http://www.w3.org/2000/svg">
<g id="Star 2">
<path id="Star 1" d="M16.2753 3.68935C16.6487 2.54024 18.2744 2.54024 18.6477 3.68935L21.1019 11.2424C21.2688 11.7563 21.7477 12.1042 22.2881 12.1042H30.2298C31.438 12.1042 31.9404 13.6503 30.9629 14.3605L24.5379 19.0285C24.1008 19.3461 23.9179 19.9091 24.0848 20.423L26.539 27.976C26.9123 29.1251 25.5971 30.0807 24.6196 29.3705L18.1947 24.7025C17.7575 24.3849 17.1656 24.3849 16.7284 24.7025L10.3034 29.3705C9.32595 30.0807 8.01074 29.1251 8.38411 27.976L10.8382 20.423C11.0052 19.9091 10.8223 19.3461 10.3851 19.0285L3.96016 14.3605C2.98267 13.6503 3.48503 12.1042 4.69328 12.1042H12.635C13.1753 12.1042 13.6542 11.7563 13.8212 11.2424L16.2753 3.68935Z" fill="#FFA800"/>
</g>
</svg>
