<svg width="18" height="18" viewBox="0 0 18 18" fill="none" xmlns="http://www.w3.org/2000/svg">
<g id="Icon/indtagram">
<path id="Union" fill-rule="evenodd" clip-rule="evenodd" d="M6.24219 3.52368C4.89599 3.52368 3.80469 4.61499 3.80469 5.96118V11.9612C3.80469 13.3074 4.89599 14.3987 6.24219 14.3987H12.2422C13.5884 14.3987 14.6797 13.3074 14.6797 11.9612V5.96118C14.6797 4.61499 13.5884 3.52368 12.2422 3.52368H6.24219ZM2.67969 5.96118C2.67969 3.99367 4.27467 2.39868 6.24219 2.39868H12.2422C14.2097 2.39868 15.8047 3.99367 15.8047 5.96118V11.9612C15.8047 13.9287 14.2097 15.5237 12.2422 15.5237H6.24219C4.27467 15.5237 2.67969 13.9287 2.67969 11.9612V5.96118ZM9.24219 7.27368C8.31021 7.27368 7.55469 8.0292 7.55469 8.96118C7.55469 9.89316 8.31021 10.6487 9.24219 10.6487C10.1742 10.6487 10.9297 9.89316 10.9297 8.96118C10.9297 8.0292 10.1742 7.27368 9.24219 7.27368ZM6.42969 8.96118C6.42969 7.40788 7.68889 6.14868 9.24219 6.14868C10.7955 6.14868 12.0547 7.40788 12.0547 8.96118C12.0547 10.5145 10.7955 11.7737 9.24219 11.7737C7.68889 11.7737 6.42969 10.5145 6.42969 8.96118ZM13.1797 5.58618C13.1797 5.27552 12.9278 5.02368 12.6172 5.02368C12.3065 5.02368 12.0547 5.27552 12.0547 5.58618V5.58718C12.0547 5.89784 12.3065 6.14968 12.6172 6.14968C12.9278 6.14968 13.1797 5.89784 13.1797 5.58718V5.58618Z" fill="#282828"/>
</g>
</svg>
