<svg width="18" height="18" viewBox="0 0 18 18" fill="none" xmlns="http://www.w3.org/2000/svg">
<g id="Icon/twitter">
<path id="Vector" d="M16.2275 2.92963C15.4775 3.29713 14.7425 3.44638 13.9775 3.67213C13.1368 2.72338 11.8903 2.67088 10.6925 3.11938C9.49479 3.56788 8.71029 4.66438 8.72754 5.92213V6.67213C6.29379 6.73438 4.12629 5.62588 2.72754 3.67213C2.72754 3.67213 -0.408961 9.24688 5.72754 11.9221C4.32354 12.8574 2.92329 13.4881 1.22754 13.4221C3.70854 14.7744 6.41229 15.2394 8.75304 14.5599C11.438 13.7799 13.6445 11.7676 14.4913 8.75338C14.7439 7.83663 14.8693 6.88952 14.864 5.93863C14.8625 5.75188 15.9965 3.85963 16.2275 2.92888V2.92963Z" stroke="#282828" stroke-width="1.125" stroke-linecap="round" stroke-linejoin="round"/>
</g>
</svg>
